<?xml version="1.0" encoding="UTF-8" standalone="no"?>
<!DOCTYPE svg PUBLIC "-//W3C//DTD SVG 1.1//EN"
 "http://www.w3.org/Graphics/SVG/1.1/DTD/svg11.dtd">
<!-- Generated by graphviz version 2.43.0 (0)
 -->
<!-- Title: Fig1a Pages: 1 -->
<svg width="1255pt" height="166pt"
 viewBox="0.00 0.00 1255.00 166.00" xmlns="http://www.w3.org/2000/svg" xmlns:xlink="http://www.w3.org/1999/xlink">
<g id="graph0" class="graph" transform="scale(1 1) rotate(0) translate(4 162)">
<title>Fig1a</title>
<polygon fill="white" stroke="transparent" points="-4,4 -4,-162 1251,-162 1251,4 -4,4"/>
<!-- Design -->
<g id="node1" class="node">
<title>Design</title>
<path fill="white" stroke="black" d="M87,-38C87,-38 12,-38 12,-38 6,-38 0,-32 0,-26 0,-26 0,-12 0,-12 0,-6 6,0 12,0 12,0 87,0 87,0 93,0 99,-6 99,-12 99,-12 99,-26 99,-26 99,-32 93,-38 87,-38"/>
<text text-anchor="middle" x="49.5" y="-22.8" font-family="Times,serif" font-size="14.00">Design Params</text>
<text text-anchor="middle" x="49.5" y="-7.8" font-family="Times,serif" font-size="14.00">ε(x,y)</text>
</g>
<!-- Material -->
<g id="node2" class="node">
<title>Material</title>
<path fill="white" stroke="black" d="M237,-79C237,-79 169,-79 169,-79 163,-79 157,-73 157,-67 157,-67 157,-55 157,-55 157,-49 163,-43 169,-43 169,-43 237,-43 237,-43 243,-43 249,-49 249,-55 249,-55 249,-67 249,-67 249,-73 243,-79 237,-79"/>
<text text-anchor="middle" x="203" y="-57.3" font-family="Times,serif" font-size="14.00">Material Grid</text>
</g>
<!-- Design&#45;&gt;Material -->
<g id="edge1" class="edge">
<title>Design&#45;&gt;Material</title>
<path fill="none" stroke="black" d="M99.34,-19C144.16,-19 203,-19 203,-19 203,-19 203,-32.94 203,-32.94"/>
<polygon fill="black" stroke="black" points="199.5,-32.94 203,-42.94 206.5,-32.94 199.5,-32.94"/>
</g>
<!-- FDTD -->
<g id="node3" class="node">
<title>FDTD</title>
<path fill="white" stroke="black" d="M406.5,-79C406.5,-79 339.5,-79 339.5,-79 333.5,-79 327.5,-73 327.5,-67 327.5,-67 327.5,-55 327.5,-55 327.5,-49 333.5,-43 339.5,-43 339.5,-43 406.5,-43 406.5,-43 412.5,-43 418.5,-49 418.5,-55 418.5,-55 418.5,-67 418.5,-67 418.5,-73 412.5,-79 406.5,-79"/>
<text text-anchor="middle" x="373" y="-57.3" font-family="Times,serif" font-size="14.00">FDTD Solver</text>
</g>
<!-- Material&#45;&gt;FDTD -->
<g id="edge2" class="edge">
<title>Material&#45;&gt;FDTD</title>
<path fill="none" stroke="black" d="M249,-61C249,-61 317.25,-61 317.25,-61"/>
<polygon fill="black" stroke="black" points="317.25,-64.5 327.25,-61 317.25,-57.5 317.25,-64.5"/>
</g>
<!-- Field -->
<g id="node4" class="node">
<title>Field</title>
<path fill="white" stroke="black" d="M543,-79C543,-79 509,-79 509,-79 503,-79 497,-73 497,-67 497,-67 497,-55 497,-55 497,-49 503,-43 509,-43 509,-43 543,-43 543,-43 549,-43 555,-49 555,-55 555,-55 555,-67 555,-67 555,-73 549,-79 543,-79"/>
<text text-anchor="middle" x="526" y="-57.3" font-family="Times,serif" font-size="14.00">E(x,y,t)</text>
</g>
<!-- FDTD&#45;&gt;Field -->
<g id="edge3" class="edge">
<title>FDTD&#45;&gt;Field</title>
<path fill="none" stroke="black" d="M418.91,-61C418.91,-61 487,-61 487,-61"/>
<polygon fill="black" stroke="black" points="487,-64.5 497,-61 487,-57.5 487,-64.5"/>
</g>
<!-- Interp -->
<g id="node7" class="node">
<title>Interp</title>
<path fill="white" stroke="black" d="M719,-80C719,-80 625,-80 625,-80 619,-80 613,-74 613,-68 613,-68 613,-56 613,-56 613,-50 619,-44 625,-44 625,-44 719,-44 719,-44 725,-44 731,-50 731,-56 731,-56 731,-68 731,-68 731,-74 725,-80 719,-80"/>
<text text-anchor="middle" x="672" y="-58.3" font-family="Times,serif" font-size="14.00">Field Interpolation</text>
</g>
<!-- Field&#45;&gt;Interp -->
<g id="edge5" class="edge">
<title>Field&#45;&gt;Interp</title>
<path fill="none" stroke="black" d="M555.19,-61.5C555.19,-61.5 602.98,-61.5 602.98,-61.5"/>
<polygon fill="black" stroke="black" points="602.98,-65 612.98,-61.5 602.98,-58 602.98,-65"/>
</g>
<!-- MD -->
<g id="node5" class="node">
<title>MD</title>
<path fill="white" stroke="black" d="M427,-158C427,-158 319,-158 319,-158 313,-158 307,-152 307,-146 307,-146 307,-134 307,-134 307,-128 313,-122 319,-122 319,-122 427,-122 427,-122 433,-122 439,-128 439,-134 439,-134 439,-146 439,-146 439,-152 433,-158 427,-158"/>
<text text-anchor="middle" x="373" y="-136.3" font-family="Times,serif" font-size="14.00">Molecular Dynamics</text>
</g>
<!-- Traj -->
<g id="node6" class="node">
<title>Traj</title>
<path fill="white" stroke="black" d="M541,-158C541,-158 511,-158 511,-158 505,-158 499,-152 499,-146 499,-146 499,-134 499,-134 499,-128 505,-122 511,-122 511,-122 541,-122 541,-122 547,-122 553,-128 553,-134 553,-134 553,-146 553,-146 553,-152 547,-158 541,-158"/>
<text text-anchor="middle" x="526" y="-136.3" font-family="Times,serif" font-size="14.00">rₘ(t)</text>
</g>
<!-- MD&#45;&gt;Traj -->
<g id="edge4" class="edge">
<title>MD&#45;&gt;Traj</title>
<path fill="none" stroke="black" d="M439.22,-140C439.22,-140 488.89,-140 488.89,-140"/>
<polygon fill="black" stroke="black" points="488.89,-143.5 498.89,-140 488.89,-136.5 488.89,-143.5"/>
</g>
<!-- Traj&#45;&gt;Interp -->
<g id="edge6" class="edge">
<title>Traj&#45;&gt;Interp</title>
<path fill="none" stroke="black" d="M553.12,-140C595.34,-140 672,-140 672,-140 672,-140 672,-90.09 672,-90.09"/>
<polygon fill="black" stroke="black" points="675.5,-90.09 672,-80.09 668.5,-90.09 675.5,-90.09"/>
</g>
<!-- Signal -->
<g id="node8" class="node">
<title>Signal</title>
<path fill="white" stroke="black" d="M848,-81C848,-81 801,-81 801,-81 795,-81 789,-75 789,-69 789,-69 789,-55 789,-55 789,-49 795,-43 801,-43 801,-43 848,-43 848,-43 854,-43 860,-49 860,-55 860,-55 860,-69 860,-69 860,-75 854,-81 848,-81"/>
<text text-anchor="middle" x="824.5" y="-65.8" font-family="Times,serif" font-size="14.00">Signal</text>
<text text-anchor="middle" x="824.5" y="-50.8" font-family="Times,serif" font-size="14.00">∫|E(rₘ)|²dt</text>
</g>
<!-- Interp&#45;&gt;Signal -->
<g id="edge7" class="edge">
<title>Interp&#45;&gt;Signal</title>
<path fill="none" stroke="black" d="M731.4,-62C731.4,-62 778.83,-62 778.83,-62"/>
<polygon fill="black" stroke="black" points="778.83,-65.5 788.83,-62 778.83,-58.5 778.83,-65.5"/>
</g>
<!-- Loss -->
<g id="node9" class="node">
<title>Loss</title>
<path fill="white" stroke="black" d="M962,-79C962,-79 930,-79 930,-79 924,-79 918,-73 918,-67 918,-67 918,-55 918,-55 918,-49 924,-43 930,-43 930,-43 962,-43 962,-43 968,-43 974,-49 974,-55 974,-55 974,-67 974,-67 974,-73 968,-79 962,-79"/>
<text text-anchor="middle" x="946" y="-57.3" font-family="Times,serif" font-size="14.00">Loss ℒ</text>
</g>
<!-- Signal&#45;&gt;Loss -->
<g id="edge8" class="edge">
<title>Signal&#45;&gt;Loss</title>
<path fill="none" stroke="black" d="M860.3,-61C860.3,-61 907.77,-61 907.77,-61"/>
<polygon fill="black" stroke="black" points="907.77,-64.5 917.77,-61 907.77,-57.5 907.77,-64.5"/>
</g>
<!-- Grad -->
<g id="node10" class="node">
<title>Grad</title>
<path fill="white" stroke="black" d="M1084,-79C1084,-79 1044,-79 1044,-79 1038,-79 1032,-73 1032,-67 1032,-67 1032,-55 1032,-55 1032,-49 1038,-43 1044,-43 1044,-43 1084,-43 1084,-43 1090,-43 1096,-49 1096,-55 1096,-55 1096,-67 1096,-67 1096,-73 1090,-79 1084,-79"/>
<text text-anchor="middle" x="1064" y="-57.3" font-family="Times,serif" font-size="14.00">Gradient</text>
</g>
<!-- Loss&#45;&gt;Grad -->
<g id="edge9" class="edge">
<title>Loss&#45;&gt;Grad</title>
<path fill="none" stroke="black" d="M974.26,-61C974.26,-61 1021.8,-61 1021.8,-61"/>
<polygon fill="black" stroke="black" points="1021.8,-64.5 1031.8,-61 1021.8,-57.5 1021.8,-64.5"/>
</g>
<!-- Update -->
<g id="node11" class="node">
<title>Update</title>
<path fill="white" stroke="black" d="M1235,-37C1235,-37 1166,-37 1166,-37 1160,-37 1154,-31 1154,-25 1154,-25 1154,-13 1154,-13 1154,-7 1160,-1 1166,-1 1166,-1 1235,-1 1235,-1 1241,-1 1247,-7 1247,-13 1247,-13 1247,-25 1247,-25 1247,-31 1241,-37 1235,-37"/>
<text text-anchor="middle" x="1200.5" y="-15.3" font-family="Times,serif" font-size="14.00">Adam Update</text>
</g>
<!-- Grad&#45;&gt;Update -->
<g id="edge10" class="edge">
<title>Grad&#45;&gt;Update</title>
<path fill="none" stroke="black" d="M1064,-42.96C1064,-35.25 1064,-28 1064,-28 1064,-28 1143.91,-28 1143.91,-28"/>
<polygon fill="black" stroke="black" points="1143.91,-31.5 1153.91,-28 1143.91,-24.5 1143.91,-31.5"/>
</g>
<!-- Update&#45;&gt;Design -->
<g id="edge11" class="edge">
<title>Update&#45;&gt;Design</title>
<path fill="none" stroke="black" d="M1153.95,-10C1153.95,-10 109.19,-10 109.19,-10"/>
<polygon fill="black" stroke="black" points="109.19,-6.5 99.19,-10 109.19,-13.5 109.19,-6.5"/>
</g>
</g>
</svg>
