<?xml version="1.0" encoding="UTF-8" standalone="no"?>
<!DOCTYPE svg PUBLIC "-//W3C//DTD SVG 1.1//EN"
 "http://www.w3.org/Graphics/SVG/1.1/DTD/svg11.dtd">
<!-- Generated by graphviz version 2.43.0 (0)
 -->
<!-- Title: DiffBioNano Pages: 1 -->
<svg width="278pt" height="720pt"
 viewBox="0.00 0.00 277.50 719.74" xmlns="http://www.w3.org/2000/svg" xmlns:xlink="http://www.w3.org/1999/xlink">
<g id="graph0" class="graph" transform="scale(1 1) rotate(0) translate(4 715.74)">
<title>DiffBioNano</title>
<polygon fill="white" stroke="transparent" points="-4,4 -4,-715.74 273.5,-715.74 273.5,4 -4,4"/>
<!-- Design -->
<g id="node1" class="node">
<title>Design</title>
<polygon fill="lightblue" stroke="black" points="217,-711.74 98,-711.74 98,-673.74 217,-673.74 217,-711.74"/>
<text text-anchor="middle" x="157.5" y="-696.54" font-family="Times,serif" font-size="14.00">Design Parameters</text>
<text text-anchor="middle" x="157.5" y="-681.54" font-family="Times,serif" font-size="14.00">ε(x,y)</text>
</g>
<!-- Material -->
<g id="node2" class="node">
<title>Material</title>
<polygon fill="lightgreen" stroke="black" points="166.5,-637.74 74.5,-637.74 74.5,-601.74 166.5,-601.74 166.5,-637.74"/>
<text text-anchor="middle" x="120.5" y="-616.04" font-family="Times,serif" font-size="14.00">Material Grid</text>
</g>
<!-- Design&#45;&gt;Material -->
<g id="edge1" class="edge">
<title>Design&#45;&gt;Material</title>
<path fill="none" stroke="black" d="M147.97,-673.46C143.76,-665.37 138.72,-655.71 134.12,-646.88"/>
<polygon fill="black" stroke="black" points="137.09,-644.99 129.36,-637.74 130.88,-648.23 137.09,-644.99"/>
</g>
<!-- FDTD -->
<g id="node3" class="node">
<title>FDTD</title>
<polygon fill="orange" stroke="black" points="91,-565.74 0,-565.74 0,-529.74 91,-529.74 91,-565.74"/>
<text text-anchor="middle" x="45.5" y="-544.04" font-family="Times,serif" font-size="14.00">FDTD Solver</text>
</g>
<!-- Material&#45;&gt;FDTD -->
<g id="edge2" class="edge">
<title>Material&#45;&gt;FDTD</title>
<path fill="none" stroke="black" d="M101.96,-601.44C92.7,-592.79 81.34,-582.19 71.24,-572.77"/>
<polygon fill="black" stroke="black" points="73.52,-570.11 63.83,-565.84 68.75,-575.23 73.52,-570.11"/>
</g>
<!-- Efield -->
<g id="node4" class="node">
<title>Efield</title>
<ellipse fill="yellow" stroke="black" cx="57.5" cy="-475.74" rx="37.89" ry="18"/>
<text text-anchor="middle" x="57.5" y="-472.04" font-family="Times,serif" font-size="14.00">E(x,y,t)</text>
</g>
<!-- FDTD&#45;&gt;Efield -->
<g id="edge3" class="edge">
<title>FDTD&#45;&gt;Efield</title>
<path fill="none" stroke="black" d="M48.47,-529.44C49.79,-521.72 51.38,-512.45 52.85,-503.85"/>
<polygon fill="black" stroke="black" points="56.33,-504.29 54.57,-493.84 49.43,-503.11 56.33,-504.29"/>
</g>
<!-- Interp -->
<g id="node7" class="node">
<title>Interp</title>
<polygon fill="cyan" stroke="black" points="123.5,-421.74 5.5,-383.74 123.5,-345.74 241.5,-383.74 123.5,-421.74"/>
<text text-anchor="middle" x="123.5" y="-387.54" font-family="Times,serif" font-size="14.00">Field Interpolation</text>
<text text-anchor="middle" x="123.5" y="-372.54" font-family="Times,serif" font-size="14.00">E(rₘ(t))</text>
</g>
<!-- Efield&#45;&gt;Interp -->
<g id="edge5" class="edge">
<title>Efield&#45;&gt;Interp</title>
<path fill="none" stroke="black" d="M69.61,-458.23C76.8,-448.42 86.25,-435.54 95.22,-423.3"/>
<polygon fill="black" stroke="black" points="98.23,-425.11 101.32,-414.98 92.59,-420.97 98.23,-425.11"/>
</g>
<!-- MD -->
<g id="node5" class="node">
<title>MD</title>
<polygon fill="pink" stroke="black" points="241.5,-565.74 109.5,-565.74 109.5,-529.74 241.5,-529.74 241.5,-565.74"/>
<text text-anchor="middle" x="175.5" y="-544.04" font-family="Times,serif" font-size="14.00">Molecular Dynamics</text>
</g>
<!-- Trajectory -->
<g id="node6" class="node">
<title>Trajectory</title>
<ellipse fill="lightpink" stroke="black" cx="152.5" cy="-475.74" rx="27.1" ry="18"/>
<text text-anchor="middle" x="152.5" y="-472.04" font-family="Times,serif" font-size="14.00">rₘ(t)</text>
</g>
<!-- MD&#45;&gt;Trajectory -->
<g id="edge4" class="edge">
<title>MD&#45;&gt;Trajectory</title>
<path fill="none" stroke="black" d="M169.81,-529.44C167.25,-521.64 164.17,-512.25 161.32,-503.57"/>
<polygon fill="black" stroke="black" points="164.57,-502.25 158.12,-493.84 157.92,-504.44 164.57,-502.25"/>
</g>
<!-- Trajectory&#45;&gt;Interp -->
<g id="edge6" class="edge">
<title>Trajectory&#45;&gt;Interp</title>
<path fill="none" stroke="black" d="M147.05,-457.81C144.31,-449.31 140.85,-438.59 137.44,-428"/>
<polygon fill="black" stroke="black" points="140.73,-426.82 134.34,-418.37 134.07,-428.96 140.73,-426.82"/>
</g>
<!-- Signal -->
<g id="node8" class="node">
<title>Signal</title>
<ellipse fill="lightyellow" stroke="black" cx="130.5" cy="-282.87" rx="50.41" ry="26.74"/>
<text text-anchor="middle" x="130.5" y="-286.67" font-family="Times,serif" font-size="14.00">Signal</text>
<text text-anchor="middle" x="130.5" y="-271.67" font-family="Times,serif" font-size="14.00">∫|E(rₘ)|²dt</text>
</g>
<!-- Interp&#45;&gt;Signal -->
<g id="edge7" class="edge">
<title>Interp&#45;&gt;Signal</title>
<path fill="none" stroke="black" d="M126.07,-346.49C126.68,-337.87 127.33,-328.67 127.94,-320.05"/>
<polygon fill="black" stroke="black" points="131.44,-320.13 128.66,-309.91 124.46,-319.64 131.44,-320.13"/>
</g>
<!-- Loss -->
<g id="node9" class="node">
<title>Loss</title>
<polygon fill="red" stroke="black" points="184.5,-220 128.5,-220 128.5,-184 184.5,-184 184.5,-220"/>
<text text-anchor="middle" x="156.5" y="-198.3" font-family="Times,serif" font-size="14.00">Loss ℒ</text>
</g>
<!-- Signal&#45;&gt;Loss -->
<g id="edge8" class="edge">
<title>Signal&#45;&gt;Loss</title>
<path fill="none" stroke="black" d="M139.01,-256.05C141.75,-247.74 144.79,-238.52 147.56,-230.12"/>
<polygon fill="black" stroke="black" points="150.95,-231.01 150.76,-220.41 144.31,-228.81 150.95,-231.01"/>
</g>
<!-- Grad -->
<g id="node10" class="node">
<title>Grad</title>
<polygon fill="purple" stroke="black" points="235.7,-148 130.39,-148 103.3,-72 208.61,-72 235.7,-148"/>
<text text-anchor="middle" x="169.5" y="-113.8" font-family="Times,serif" font-size="14.00">Gradient</text>
<text text-anchor="middle" x="169.5" y="-98.8" font-family="Times,serif" font-size="14.00">∂ℒ/∂ε</text>
</g>
<!-- Loss&#45;&gt;Grad -->
<g id="edge9" class="edge">
<title>Loss&#45;&gt;Grad</title>
<path fill="none" stroke="black" d="M159.01,-183.65C160.08,-176.22 161.39,-167.15 162.71,-157.97"/>
<polygon fill="black" stroke="black" points="166.18,-158.44 164.15,-148.04 159.26,-157.44 166.18,-158.44"/>
</g>
<!-- Update -->
<g id="node11" class="node">
<title>Update</title>
<polygon fill="green" stroke="black" points="263,-36 170,-36 170,0 263,0 263,-36"/>
<text text-anchor="middle" x="216.5" y="-14.3" font-family="Times,serif" font-size="14.00">Adam Update</text>
</g>
<!-- Grad&#45;&gt;Update -->
<g id="edge10" class="edge">
<title>Grad&#45;&gt;Update</title>
<path fill="none" stroke="black" d="M188.89,-71.87C193.59,-62.87 198.52,-53.43 202.89,-45.06"/>
<polygon fill="black" stroke="black" points="206.02,-46.62 207.55,-36.14 199.82,-43.38 206.02,-46.62"/>
</g>
<!-- Update&#45;&gt;Design -->
<g id="edge11" class="edge">
<title>Update&#45;&gt;Design</title>
<path fill="none" stroke="black" d="M227.18,-36.08C233.07,-46.19 240.07,-59.44 244.5,-72 263.91,-127.08 269.5,-142.6 269.5,-201 269.5,-548.74 269.5,-548.74 269.5,-548.74 269.5,-599.03 226.03,-642.16 193.26,-667.53"/>
<polygon fill="black" stroke="black" points="191.08,-664.79 185.19,-673.6 195.28,-670.39 191.08,-664.79"/>
</g>
</g>
</svg>
